<!DOCTYPE svg PUBLIC "-//W3C//DTD SVG 1.1//EN" "http://www.w3.org/Graphics/SVG/1.1/DTD/svg11.dtd">
<!-- Uploaded to: SVG Repo, www.svgrepo.com, Transformed by: SVG Repo Mixer Tools -->
<svg fill="#ffffff" width="800px" height="800px" viewBox="0 0 36.00 36.00" version="1.1" preserveAspectRatio="xMidYMid meet" xmlns="http://www.w3.org/2000/svg" xmlns:xlink="http://www.w3.org/1999/xlink" stroke="#ffffff" stroke-width="0.00036">
<g id="SVGRepo_bgCarrier" stroke-width="0"/>
<g id="SVGRepo_tracerCarrier" stroke-linecap="round" stroke-linejoin="round"/>
<g id="SVGRepo_iconCarrier"> <title>keyboard-solid</title> <path class="clr-i-solid clr-i-solid-path-1" d="M32,8H4a2,2,0,0,0-2,2V26a2,2,0,0,0,2,2H32a2,2,0,0,0,2-2V10A2,2,0,0,0,32,8ZM19,13h2v2H19Zm0,4h2v2H19Zm-4-4h2v2H15Zm0,4h2v2H15Zm-4-4h2v2H11ZM9,24H7V22H9Zm0-5H7V17H9Zm0-4H7V13H9Zm2,2h2v2H11Zm13.88,7H11.13V22H24.88ZM25,19H23V17h2Zm0-4H23V13h2Zm3.94,9H27V22h1.94ZM29,19H27V17h2Zm0-4H27V13h2Z"/> <rect x="0" y="0" width="36" height="36" fill-opacity="0"/> </g>
</svg>